<mxfile host="app.diagrams.net" modified="2023-02-28T02:45:58.920Z" agent="5.0 (Windows NT 10.0; Win64; x64) AppleWebKit/537.36 (KHTML, like Gecko) Chrome/110.0.0.0 Safari/537.36" etag="e5pWR4GxDUETtEUuh-Ek" version="20.8.23" type="github">
  <diagram name="Page-1" id="86NCNcFHp9EZxluicRBQ">
    <mxGraphModel dx="794" dy="1562" grid="1" gridSize="10" guides="1" tooltips="1" connect="1" arrows="1" fold="1" page="1" pageScale="1" pageWidth="850" pageHeight="1100" math="0" shadow="0">
      <root>
        <mxCell id="0" />
        <mxCell id="1" parent="0" />
        <mxCell id="sX8MedQuzZVbjlbt9qT--23" value="" style="edgeStyle=orthogonalEdgeStyle;rounded=0;orthogonalLoop=1;jettySize=auto;html=1;" edge="1" parent="1" source="sX8MedQuzZVbjlbt9qT--2" target="sX8MedQuzZVbjlbt9qT--12">
          <mxGeometry relative="1" as="geometry" />
        </mxCell>
        <mxCell id="sX8MedQuzZVbjlbt9qT--2" value="Medical Request" style="rounded=0;whiteSpace=wrap;html=1;" vertex="1" parent="1">
          <mxGeometry x="180" y="330" width="120" height="60" as="geometry" />
        </mxCell>
        <mxCell id="sX8MedQuzZVbjlbt9qT--11" value="employee" style="shape=document;whiteSpace=wrap;html=1;boundedLbl=1;" vertex="1" parent="1">
          <mxGeometry x="260" y="380" width="60" height="40" as="geometry" />
        </mxCell>
        <mxCell id="sX8MedQuzZVbjlbt9qT--12" value="Approved?" style="rhombus;whiteSpace=wrap;html=1;rounded=0;" vertex="1" parent="1">
          <mxGeometry x="390" y="320" width="120" height="80" as="geometry" />
        </mxCell>
        <mxCell id="sX8MedQuzZVbjlbt9qT--13" value="Assigned pagu - all the previous transaction" style="rounded=0;whiteSpace=wrap;html=1;" vertex="1" parent="1">
          <mxGeometry x="180" y="210" width="120" height="60" as="geometry" />
        </mxCell>
        <mxCell id="sX8MedQuzZVbjlbt9qT--14" value="Assign Pagu to Employee" style="rounded=0;whiteSpace=wrap;html=1;" vertex="1" parent="1">
          <mxGeometry x="180" y="110" width="120" height="60" as="geometry" />
        </mxCell>
        <mxCell id="sX8MedQuzZVbjlbt9qT--15" value="Medical Class Checking" style="rhombus;whiteSpace=wrap;html=1;" vertex="1" parent="1">
          <mxGeometry x="155" width="170" height="80" as="geometry" />
        </mxCell>
        <mxCell id="sX8MedQuzZVbjlbt9qT--16" value="Management Group Checking" style="rhombus;whiteSpace=wrap;html=1;" vertex="1" parent="1">
          <mxGeometry x="137.5" y="-120" width="205" height="80" as="geometry" />
        </mxCell>
        <mxCell id="sX8MedQuzZVbjlbt9qT--17" value="Database Field" style="rounded=0;whiteSpace=wrap;html=1;" vertex="1" parent="1">
          <mxGeometry x="180" y="-220" width="120" height="60" as="geometry" />
        </mxCell>
        <mxCell id="sX8MedQuzZVbjlbt9qT--18" value="System" style="shape=document;whiteSpace=wrap;html=1;boundedLbl=1;" vertex="1" parent="1">
          <mxGeometry x="270" y="160" width="50" height="40" as="geometry" />
        </mxCell>
        <mxCell id="sX8MedQuzZVbjlbt9qT--19" value="System" style="shape=document;whiteSpace=wrap;html=1;boundedLbl=1;" vertex="1" parent="1">
          <mxGeometry x="260" y="-180" width="50" height="40" as="geometry" />
        </mxCell>
      </root>
    </mxGraphModel>
  </diagram>
</mxfile>
